<svg xmlns="http://www.w3.org/2000/svg" width="520.524" height="267.333" viewBox="0 0 137.722 70.732"><defs><path id="m" d="M536.54 850.687h82.859v74.839H536.54z"/><path id="j" d="M506.897 830.537h117.758v43.805H506.897z"/><path id="b" d="M241.802 1389.485h85.857v60.45h-85.857z"/><path id="d" d="M-107.76 1006.433h99.875v54.947h-99.875z"/><path id="f" d="M-107.76 1006.433h99.875v54.947h-99.875z"/><path id="h" d="M49.937 1146.807h77.096v52.566H49.937z"/><path id="l" d="M241.802 1389.485h85.857v60.45h-85.857z"/><marker id="i" markerHeight="1" markerWidth="1" orient="auto-start-reverse" preserveAspectRatio="xMidYMid" refX="0" refY="0" style="overflow:visible" viewBox="0 0 1 1"><path d="M3-3 0 0l3 3" style="fill:none;stroke:context-stroke;stroke-width:1;stroke-linecap:butt" transform="rotate(180 .125 0)"/></marker><marker id="a" markerHeight="1" markerWidth="1" orient="auto" preserveAspectRatio="xMidYMid" refX="0" refY="0" style="overflow:visible" viewBox="0 0 1 1"><path d="M0 4v-8" style="fill:none;stroke:context-stroke;stroke-width:1"/></marker><marker id="c" markerHeight="1" markerWidth="1" orient="auto" preserveAspectRatio="xMidYMid" refX="0" refY="0" style="overflow:visible" viewBox="0 0 1 1"><path d="M0 4v-8" style="fill:none;stroke:context-stroke;stroke-width:1"/></marker><marker id="e" markerHeight="1" markerWidth="1" orient="auto" preserveAspectRatio="xMidYMid" refX="0" refY="0" style="overflow:visible" viewBox="0 0 1 1"><path d="M0 4v-8" style="fill:none;stroke:context-stroke;stroke-width:1"/></marker><marker id="g" markerHeight="1" markerWidth="1" orient="auto-start-reverse" preserveAspectRatio="xMidYMid" refX="0" refY="0" style="overflow:visible" viewBox="0 0 1 1"><path d="M3-3 0 0l3 3" style="fill:none;stroke:context-stroke;stroke-width:1;stroke-linecap:butt" transform="rotate(180 .125 0)"/></marker><marker id="k" markerHeight="1" markerWidth="1" orient="auto" preserveAspectRatio="xMidYMid" refX="0" refY="0" style="overflow:visible" viewBox="0 0 1 1"><path d="M0 4v-8" style="fill:none;stroke:context-stroke;stroke-width:1"/></marker></defs><path d="M14.14 135.139h137.457v70.467H14.14z" style="fill:#fff;stroke:#fff;stroke-width:.264583;stroke-linejoin:round;stroke-dasharray:none" transform="translate(-14.008 -135.007)"/><path d="M30.042 149.915h95.25v50.651h-95.25z" style="fill:#e6e6e6;stroke:#f95;stroke-width:.264583;stroke-linejoin:round" transform="translate(-14.008 -135.007)"/><path d="M-200.566 24.75h55.678v5.292h-55.678zM-200.566 125.292h55.678v5.292h-55.678z" style="fill:#fca;stroke:#f95;stroke-width:.264583;stroke-linejoin:round" transform="rotate(-90 -74.507 -60.5)"/><path d="M30.042 144.888h95.382v5.027H30.042z" style="fill:#fff6d5;stroke:#f95;stroke-width:.264583;stroke-linejoin:round" transform="translate(-14.008 -135.007)"/><path d="M30.042 149.915h7.938v32.67h-7.938zM117.354 149.915h7.938v32.67h-7.938z" style="fill:#ff7f2a;stroke:#f95;stroke-width:.264583;stroke-linejoin:round" transform="translate(-14.008 -135.007)"/><path d="M-157.852 37.979h7.938v79.375h-7.938z" style="fill:#cdde87;stroke:#f95;stroke-width:.264582;stroke-linejoin:round" transform="rotate(-90 -74.507 -60.5)"/><path d="M25.015 197.92h5.027" style="fill:#e6e6e6;stroke:#000;stroke-width:.264583;stroke-linejoin:round;stroke-dasharray:none;marker-start:url(#a);marker-end:url(#a)" transform="translate(-14.008 -135.007)"/><text xml:space="preserve" style="font-size:16px;line-height:normal;font-family:&quot;Liberation Mono&quot;;-inkscape-font-specification:&quot;Liberation Mono&quot;;text-decoration-color:#000;white-space:pre;shape-inside:url(#b);display:inline;fill:#000;stroke-width:1;-inkscape-stroke:none;stop-color:#000" transform="translate(-59.705 -307.02)scale(.26458)"><tspan x="241.803" y="1403.721">E1</tspan></text><path d="M30.042 179.41h7.937" style="fill:#000;stroke:#000;stroke-width:.264583;stroke-linejoin:round;stroke-dasharray:none;marker-start:url(#c);marker-end:url(#c)" transform="translate(-14.008 -135.007)"/><text xml:space="preserve" style="font-size:16px;line-height:normal;font-family:&quot;Liberation Mono&quot;;-inkscape-font-specification:&quot;Liberation Mono&quot;;text-decoration-color:#000;white-space:pre;shape-inside:url(#d);display:inline;fill:#000;stroke-width:1;-inkscape-stroke:none;stop-color:#000" transform="translate(45.901 -227.27)scale(.26458)"><tspan x="-107.76" y="1020.67">E2</tspan></text><path d="M45.504 149.915v7.937" style="fill:#e6e6e6;stroke:#000;stroke-width:.264583;stroke-linejoin:round;stroke-dasharray:none;marker-start:url(#e);marker-end:url(#e)" transform="translate(-14.008 -135.007)"/><text xml:space="preserve" style="font-size:16px;line-height:normal;font-family:&quot;Liberation Mono&quot;;-inkscape-font-specification:&quot;Liberation Mono&quot;;text-decoration-color:#000;white-space:pre;shape-inside:url(#f);display:inline;fill:#000;stroke-width:1;-inkscape-stroke:none;stop-color:#000" transform="translate(61.258 -250.382)scale(.26458)"><tspan x="-107.76" y="1020.67">E2</tspan></text><path d="M118.942 149.915v32.67" style="fill:#e6e6e6;stroke:#000;stroke-width:.264583;stroke-linejoin:round;stroke-dasharray:none;marker-start:url(#g);marker-end:url(#g)" transform="translate(-14.008 -135.007)"/><text xml:space="preserve" style="font-size:16px;line-height:normal;font-family:&quot;Liberation Mono&quot;;-inkscape-font-specification:&quot;Liberation Mono&quot;;text-decoration-color:#000;white-space:pre;shape-inside:url(#h);display:inline;fill:#000;stroke-width:1;-inkscape-stroke:none;stop-color:#000" transform="translate(92.506 -274.534)scale(.26458)"><tspan x="49.938" y="1161.043">W2</tspan></text><path d="M133.23 144.888v55.678" style="fill:#000;stroke:#000;stroke-width:.264583;stroke-linejoin:round;stroke-dasharray:none;marker-start:url(#i);marker-end:url(#i)" transform="translate(-14.008 -135.007)"/><text xml:space="preserve" style="font-size:16px;line-height:normal;font-family:&quot;Liberation Mono&quot;;-inkscape-font-specification:&quot;Liberation Mono&quot;;text-decoration-color:#000;white-space:pre;shape-inside:url(#j);fill:#999;stroke-width:1;-inkscape-stroke:none;stop-color:#000" transform="translate(-12.381 -184.42)scale(.26458)"><tspan x="506.896" y="844.774">W1+W5</tspan></text><path d="M53.97 144.881v5.04" style="fill:#e6e6e6;stroke:#000;stroke-width:.264583;stroke-linejoin:round;stroke-dasharray:none;marker-start:url(#k);marker-end:url(#k)" transform="translate(-14.008 -135.007)"/><text xml:space="preserve" style="font-size:16px;line-height:normal;font-family:&quot;Liberation Mono&quot;;-inkscape-font-specification:&quot;Liberation Mono&quot;;text-decoration-color:#000;white-space:pre;shape-inside:url(#l);display:inline;fill:#999;stroke-width:1;-inkscape-stroke:none;stop-color:#000" transform="translate(-22.026 -357.662)scale(.26458)"><tspan x="241.803" y="1403.721">E1</tspan></text><path d="M24.75 142.771h105.833" style="fill:#999;stroke:#000;stroke-width:.264583;stroke-linejoin:round;stroke-dasharray:none;marker-start:url(#i);marker-end:url(#i)" transform="translate(-14.008 -135.007)"/><text xml:space="preserve" style="font-size:16px;line-height:normal;font-family:&quot;Liberation Mono&quot;;-inkscape-font-specification:&quot;Liberation Mono&quot;;text-decoration-color:#000;white-space:pre;shape-inside:url(#m);fill:#000;stroke-width:1;-inkscape-stroke:none;stop-color:#000" transform="translate(-80.983 -223.065)scale(.26458)"><tspan x="536.539" y="864.924">L1</tspan></text></svg>