<svg xmlns="http://www.w3.org/2000/svg" width="330.411" height="438.171" viewBox="0 0 87.421 115.933"><defs><path id="n" d="M-107.76 1006.433h99.875v54.947h-99.875z"/><path id="m" d="M49.937 1146.807h77.096v52.566H49.937z"/><path id="l" d="M116.521 1376.344h72.716v46.433h-72.716z"/><path id="k" d="M98.999 1350.061H179.6v57.822H98.999z"/><path id="j" d="M268.085 1333.415h70.964v54.318h-70.964z"/><path id="f" d="M241.802 1389.485h85.857v60.45h-85.857z"/><path id="e" d="M452.941 951.438h86.733v63.955h-86.733z"/><path id="d" d="M454.693 1093.366h67.459v45.557h-67.459z"/><path id="c" d="M436.295 1218.647h89.362v66.583h-89.362z"/><path id="g" d="M241.802 1389.485h85.857v60.45h-85.857z"/><path id="h" d="M241.802 1389.485h85.857v60.45h-85.857z"/><path id="i" d="M241.802 1389.485h85.857v60.45h-85.857z"/><path id="o" d="M-107.76 1006.433h99.875v54.947h-99.875z"/><marker id="b" markerHeight="1" markerWidth="1" orient="auto-start-reverse" preserveAspectRatio="xMidYMid" refX="0" refY="0" style="overflow:visible" viewBox="0 0 1 1"><path d="M3-3 0 0l3 3" style="fill:none;stroke:context-stroke;stroke-width:1;stroke-linecap:butt" transform="rotate(180 .125 0)"/></marker><marker id="a" markerHeight="1" markerWidth="1" orient="auto" preserveAspectRatio="xMidYMid" refX="0" refY="0" style="overflow:visible" viewBox="0 0 1 1"><path d="M0 4v-8" style="fill:none;stroke:context-stroke;stroke-width:1"/></marker></defs><path d="M33.379 229.946h87.157v115.668H33.379z" style="fill:#fff;stroke:#fff;stroke-width:.264583;stroke-linejoin:round;stroke-dasharray:none" transform="translate(-33.247 -229.813)"/><path d="M42.253 241.533v84.378h10.99v10.474h50.397v-94.852z" style="fill:#fca;stroke:#f95;stroke-width:.264583;stroke-linejoin:round" transform="translate(-33.247 -229.813)"/><path d="M42.253 236.241h61.387v5.292H42.253z" style="fill:#ffe6d5;stroke:#f95;stroke-width:.264583;stroke-linejoin:round" transform="translate(-33.247 -229.813)"/><path d="M-325.911 42.253h84.378v5.027h-84.378z" style="fill:#fff6d5;stroke:#f95;stroke-width:.264583;stroke-linejoin:round" transform="rotate(-90 -131.53 -98.283)"/><path d="M47.28 275.399h56.36v5.292H47.28zM47.28 307.919h56.36v5.292H47.28z" style="fill:#e6e6e6;stroke:#f95;stroke-width:.264583;stroke-linejoin:round" transform="translate(-33.247 -229.813)"/><path d="M-249.47 47.28h7.938v32.67h-7.938zM-288.629 47.28h7.938v32.67h-7.938zM-321.148 47.28h7.938v32.67h-7.938z" style="fill:#ff7f2a;stroke:#f95;stroke-width:.264583;stroke-linejoin:round" transform="rotate(-90 -131.53 -98.283)"/><path d="M47.28 249.47h7.938v25.929H47.28zM47.28 288.629h7.938v19.29H47.28z" style="fill:#cdde87;stroke:#f95;stroke-width:.264582;stroke-linejoin:round" transform="translate(-33.247 -229.813)"/><path d="M103.64 236.24v5.293" style="fill:#e6e6e6;stroke:#f95;stroke-width:.264583;stroke-linejoin:round" transform="translate(-33.247 -229.813)"/><path d="M106.286 241.533v-5.292" style="fill:#e6e6e6;stroke:#000;stroke-width:.264583;stroke-linejoin:round;stroke-dasharray:none;marker-start:url(#a);marker-end:url(#a)" transform="translate(-33.247 -229.813)"/><path d="M108.402 241.533v33.866" style="fill:#e6e6e6;stroke:#000;stroke-width:.264583;stroke-linejoin:round;stroke-dasharray:none;marker-start:url(#b);marker-end:url(#b)" transform="translate(-33.247 -229.813)"/><path d="M111.578 275.4v5.291" style="fill:#e6e6e6;stroke:#000;stroke-width:.264583;stroke-linejoin:round;stroke-dasharray:none;marker-start:url(#a);marker-end:url(#a)" transform="translate(-33.247 -229.813)"/><path d="M108.402 280.691v27.228" style="fill:#e6e6e6;stroke:#000;stroke-width:.264583;stroke-linejoin:round;stroke-dasharray:none;marker-start:url(#b);marker-end:url(#b)" transform="translate(-33.247 -229.813)"/><path d="M111.048 307.919v5.291" style="fill:#e6e6e6;stroke:#000;stroke-width:.264583;stroke-linejoin:round;stroke-dasharray:none;marker-start:url(#a);marker-end:url(#a)" transform="translate(-33.247 -229.813)"/><path d="M108.402 313.21v23.175" style="fill:#e6e6e6;stroke:#000;stroke-width:.264583;stroke-linejoin:round;stroke-dasharray:none;marker-start:url(#b);marker-end:url(#b)" transform="translate(-33.247 -229.813)"/><path d="M53.244 339.03h50.396" style="fill:#e6e6e6;stroke:#000;stroke-width:.264583;stroke-linejoin:round;stroke-dasharray:none;marker-start:url(#b);marker-end:url(#b)" transform="translate(-33.247 -229.813)"/><path d="M42.253 328.027h10.99" style="fill:#e6e6e6;stroke:#000;stroke-width:.264583;stroke-linejoin:round;stroke-dasharray:none;marker-start:url(#b);marker-end:url(#b)" transform="translate(-33.247 -229.813)"/><path d="M55.89 325.91v10.475" style="fill:#e6e6e6;stroke:#000;stroke-width:.264583;stroke-linejoin:round;stroke-dasharray:none;marker-start:url(#b);marker-end:url(#b)" transform="translate(-33.247 -229.813)"/><path d="M42.253 264.816h5.027" style="fill:#e6e6e6;stroke:#000;stroke-width:.264583;stroke-linejoin:round;stroke-dasharray:none;marker-start:url(#a);marker-end:url(#a)" transform="translate(-33.247 -229.813)"/><text xml:space="preserve" style="font-size:16px;line-height:normal;font-family:&quot;Liberation Mono&quot;;-inkscape-font-specification:&quot;Liberation Mono&quot;;text-decoration-color:#000;white-space:pre;shape-inside:url(#c);fill:#000;stroke-width:1;-inkscape-stroke:none;stop-color:#000" transform="translate(-38.346 -228.886)scale(.26458)"><tspan x="436.295" y="1232.883">H1</tspan></text><text xml:space="preserve" style="font-size:16px;line-height:normal;font-family:&quot;Liberation Mono&quot;;-inkscape-font-specification:&quot;Liberation Mono&quot;;text-decoration-color:#000;white-space:pre;shape-inside:url(#d);fill:#000;stroke-width:1;-inkscape-stroke:none;stop-color:#000" transform="translate(-42.75 -226.8)scale(.26458)"><tspan x="454.693" y="1107.602">H2</tspan></text><text xml:space="preserve" style="font-size:16px;line-height:normal;font-family:&quot;Liberation Mono&quot;;-inkscape-font-specification:&quot;Liberation Mono&quot;;text-decoration-color:#000;white-space:pre;shape-inside:url(#e);fill:#000;stroke-width:1;-inkscape-stroke:none;stop-color:#000" transform="translate(-42.519 -225.409)scale(.26458)"><tspan x="452.941" y="965.674">H3</tspan></text><text xml:space="preserve" style="font-size:16px;line-height:normal;font-family:&quot;Liberation Mono&quot;;-inkscape-font-specification:&quot;Liberation Mono&quot;;text-decoration-color:#000;white-space:pre;shape-inside:url(#f);fill:#999;stroke-width:1;-inkscape-stroke:none;stop-color:#000" transform="translate(15.995 -289.154)scale(.26458)"><tspan x="241.803" y="1403.721">E1</tspan></text><text xml:space="preserve" style="font-size:16px;line-height:normal;font-family:&quot;Liberation Mono&quot;;-inkscape-font-specification:&quot;Liberation Mono&quot;;text-decoration-color:#000;white-space:pre;shape-inside:url(#g);display:inline;fill:#999;stroke-width:1;-inkscape-stroke:none;stop-color:#000" transform="translate(16.341 -321.693)scale(.26458)"><tspan x="241.803" y="1403.721">E1</tspan></text><text xml:space="preserve" style="font-size:16px;line-height:normal;font-family:&quot;Liberation Mono&quot;;-inkscape-font-specification:&quot;Liberation Mono&quot;;text-decoration-color:#000;white-space:pre;shape-inside:url(#h);display:inline;fill:#000;stroke-width:1;-inkscape-stroke:none;stop-color:#000" transform="translate(11.445 -361.986)scale(.26458)"><tspan x="241.803" y="1403.721">E1</tspan></text><text xml:space="preserve" style="font-size:16px;line-height:normal;font-family:&quot;Liberation Mono&quot;;-inkscape-font-specification:&quot;Liberation Mono&quot;;text-decoration-color:#000;white-space:pre;shape-inside:url(#i);display:inline;fill:#999;stroke-width:1;-inkscape-stroke:none;stop-color:#000" transform="translate(-61.707 -334.93)scale(.26458)"><tspan x="241.803" y="1403.721">E1</tspan></text><text xml:space="preserve" style="font-size:16px;line-height:normal;font-family:&quot;Liberation Mono&quot;;-inkscape-font-specification:&quot;Liberation Mono&quot;;text-decoration-color:#000;white-space:pre;shape-inside:url(#j);fill:#000;stroke-width:1;-inkscape-stroke:none;stop-color:#000" transform="translate(-27.452 -243.258)scale(.26458)"><tspan x="268.084" y="1347.652">W1</tspan></text><text xml:space="preserve" style="font-size:16px;line-height:normal;font-family:&quot;Liberation Mono&quot;;-inkscape-font-specification:&quot;Liberation Mono&quot;;text-decoration-color:#000;white-space:pre;shape-inside:url(#k);fill:#000;stroke-width:1;-inkscape-stroke:none;stop-color:#000" transform="translate(-15.398 -258.093)scale(.26458)"><tspan x="98.998" y="1364.297">W5</tspan></text><text xml:space="preserve" style="font-size:16px;line-height:normal;font-family:&quot;Liberation Mono&quot;;-inkscape-font-specification:&quot;Liberation Mono&quot;;text-decoration-color:#000;white-space:pre;shape-inside:url(#l);fill:#000;stroke-width:1;-inkscape-stroke:none;stop-color:#000" transform="translate(-7.054 -264.815)scale(.26458)"><tspan x="116.521" y="1390.58">H5</tspan></text><path d="M47.28 246.824h32.67" style="fill:#e6e6e6;stroke:#000;stroke-width:.264583;stroke-linejoin:round;stroke-dasharray:none;marker-start:url(#b);marker-end:url(#b)" transform="translate(-33.247 -229.813)"/><text xml:space="preserve" style="font-size:16px;line-height:normal;font-family:&quot;Liberation Mono&quot;;-inkscape-font-specification:&quot;Liberation Mono&quot;;text-decoration-color:#000;white-space:pre;shape-inside:url(#m);fill:#000;stroke-width:1;-inkscape-stroke:none;stop-color:#000" transform="translate(14.736 -291.24)scale(.26458)"><tspan x="49.938" y="1161.043">W2</tspan></text><path d="M82.066 241.533v7.937" style="fill:#e6e6e6;stroke:#000;stroke-width:.264583;stroke-linejoin:round;stroke-dasharray:none;marker-start:url(#a);marker-end:url(#a)" transform="translate(-33.247 -229.813)"/><path d="M47.28 273.812h7.937" style="fill:#e6e6e6;stroke:#000;stroke-width:.264583;stroke-linejoin:round;stroke-dasharray:none;marker-start:url(#a);marker-end:url(#a)" transform="translate(-33.247 -229.813)"/><text xml:space="preserve" style="font-size:16px;line-height:normal;font-family:&quot;Liberation Mono&quot;;-inkscape-font-specification:&quot;Liberation Mono&quot;;text-decoration-color:#000;white-space:pre;shape-inside:url(#n);fill:#000;stroke-width:1;-inkscape-stroke:none;stop-color:#000" transform="translate(78.581 -253.57)scale(.26458)"><tspan x="-107.76" y="1020.67">E2</tspan></text><text xml:space="preserve" style="font-size:16px;line-height:normal;font-family:&quot;Liberation Mono&quot;;-inkscape-font-specification:&quot;Liberation Mono&quot;;text-decoration-color:#000;white-space:pre;shape-inside:url(#o);display:inline;fill:#999;stroke-width:1;-inkscape-stroke:none;stop-color:#000" transform="translate(43.9 -227.674)scale(.26458)"><tspan x="-107.76" y="1020.67">E2</tspan></text></svg>