<svg xmlns="http://www.w3.org/2000/svg" width="600" height="3000" viewBox="0 0 158.75 793.75"><defs><path id="aH" d="M237.885 1702.884h148.099v30.455H237.885z"/><path id="B" d="M536.54 850.687h82.859v74.839H536.54z"/><path id="y" d="M506.897 830.537h117.758v43.805H506.897z"/><path id="o" d="M-107.76 1006.433h99.875v54.947h-99.875z"/><path id="n" d="M49.937 1146.807h77.096v52.566H49.937z"/><path id="m" d="M116.521 1376.344h72.716v46.433h-72.716z"/><path id="l" d="M98.999 1350.061H179.6v57.822H98.999z"/><path id="k" d="M268.085 1333.415h70.964v54.318h-70.964z"/><path id="g" d="M241.802 1389.485h85.857v60.45h-85.857z"/><path id="f" d="M452.941 951.438h86.733v63.955h-86.733z"/><path id="e" d="M454.693 1093.366h67.459v45.557h-67.459z"/><path id="d" d="M436.295 1218.647h89.362v66.583h-89.362z"/><path id="a" d="M32.214 30.975h221.778v64.427H32.214z"/><path id="h" d="M241.802 1389.485h85.857v60.45h-85.857z"/><path id="i" d="M241.802 1389.485h85.857v60.45h-85.857z"/><path id="j" d="M241.802 1389.485h85.857v60.45h-85.857z"/><path id="p" d="M-107.76 1006.433h99.875v54.947h-99.875z"/><path id="r" d="M241.802 1389.485h85.857v60.45h-85.857z"/><path id="t" d="M-107.76 1006.433h99.875v54.947h-99.875z"/><path id="v" d="M-107.76 1006.433h99.875v54.947h-99.875z"/><path id="x" d="M49.937 1146.807h77.096v52.566H49.937z"/><path id="A" d="M241.802 1389.485h85.857v60.45h-85.857z"/><path id="D" d="M536.54 850.687h82.859v74.839H536.54z"/><path id="F" d="M-107.76 1006.433h99.875v54.947h-99.875z"/><path id="H" d="M241.802 1389.485h85.857v60.45h-85.857z"/><path id="J" d="M241.802 1389.485h85.857v60.45h-85.857z"/><path id="L" d="M-107.76 1006.433h99.875v54.947h-99.875z"/><path id="N" d="M241.802 1389.485h85.857v60.45h-85.857z"/><path id="P" d="M116.521 1376.344h72.716v46.433h-72.716z"/><path id="R" d="M436.295 1218.647h89.362v66.583h-89.362z"/><path id="T" d="M241.802 1389.485h85.857v60.45h-85.857z"/><path id="V" d="M436.295 1218.647h89.362v66.583h-89.362z"/><path id="X" d="M436.295 1218.647h89.362v66.583h-89.362z"/><path id="Z" d="M241.802 1389.485h85.857v60.45h-85.857z"/><path id="ab" d="M-107.76 1006.433h99.875v54.947h-99.875z"/><path id="ad" d="M-107.76 1006.433h99.875v54.947h-99.875z"/><path id="af" d="M49.937 1146.807h77.096v52.566H49.937z"/><path id="ah" d="M506.897 830.537h117.758v43.805H506.897z"/><path id="aj" d="M241.802 1389.485h85.857v60.45h-85.857z"/><path id="ak" d="M536.54 850.687h82.859v74.839H536.54z"/><path id="am" d="M536.54 850.687h82.859v74.839H536.54z"/><path id="ao" d="M-107.76 1006.433h99.875v54.947h-99.875z"/><path id="aq" d="M241.802 1389.485h85.857v60.45h-85.857z"/><path id="as" d="M241.802 1389.485h85.857v60.45h-85.857z"/><path id="au" d="M-107.76 1006.433h99.875v54.947h-99.875z"/><path id="aw" d="M241.802 1389.485h85.857v60.45h-85.857z"/><path id="ay" d="M116.521 1376.344h72.716v46.433h-72.716z"/><path id="aA" d="M436.295 1218.647h89.362v66.583h-89.362z"/><path id="aC" d="M241.802 1389.485h85.857v60.45h-85.857z"/><path id="aE" d="M436.295 1218.647h89.362v66.583h-89.362z"/><path id="aG" d="M436.295 1218.647h89.362v66.583h-89.362z"/><path id="aI" d="M237.885 1702.884h148.099v30.455H237.885z"/><marker id="c" markerHeight="1" markerWidth="1" orient="auto-start-reverse" preserveAspectRatio="xMidYMid" refX="0" refY="0" style="overflow:visible" viewBox="0 0 1 1"><path d="M3-3 0 0l3 3" style="fill:none;stroke:context-stroke;stroke-width:1;stroke-linecap:butt" transform="rotate(180 .125 0)"/></marker><marker id="b" markerHeight="1" markerWidth="1" orient="auto" preserveAspectRatio="xMidYMid" refX="0" refY="0" style="overflow:visible" viewBox="0 0 1 1"><path d="M0 4v-8" style="fill:none;stroke:context-stroke;stroke-width:1"/></marker><marker id="q" markerHeight="1" markerWidth="1" orient="auto" preserveAspectRatio="xMidYMid" refX="0" refY="0" style="overflow:visible" viewBox="0 0 1 1"><path d="M0 4v-8" style="fill:none;stroke:context-stroke;stroke-width:1"/></marker><marker id="s" markerHeight="1" markerWidth="1" orient="auto" preserveAspectRatio="xMidYMid" refX="0" refY="0" style="overflow:visible" viewBox="0 0 1 1"><path d="M0 4v-8" style="fill:none;stroke:context-stroke;stroke-width:1"/></marker><marker id="u" markerHeight="1" markerWidth="1" orient="auto" preserveAspectRatio="xMidYMid" refX="0" refY="0" style="overflow:visible" viewBox="0 0 1 1"><path d="M0 4v-8" style="fill:none;stroke:context-stroke;stroke-width:1"/></marker><marker id="w" markerHeight="1" markerWidth="1" orient="auto-start-reverse" preserveAspectRatio="xMidYMid" refX="0" refY="0" style="overflow:visible" viewBox="0 0 1 1"><path d="M3-3 0 0l3 3" style="fill:none;stroke:context-stroke;stroke-width:1;stroke-linecap:butt" transform="rotate(180 .125 0)"/></marker><marker id="z" markerHeight="1" markerWidth="1" orient="auto" preserveAspectRatio="xMidYMid" refX="0" refY="0" style="overflow:visible" viewBox="0 0 1 1"><path d="M0 4v-8" style="fill:none;stroke:context-stroke;stroke-width:1"/></marker><marker id="C" markerHeight="1" markerWidth="1" orient="auto-start-reverse" preserveAspectRatio="xMidYMid" refX="0" refY="0" style="overflow:visible" viewBox="0 0 1 1"><path d="M3-3 0 0l3 3" style="fill:none;stroke:context-stroke;stroke-width:1;stroke-linecap:butt" transform="rotate(180 .125 0)"/></marker><marker id="E" markerHeight="1" markerWidth="1" orient="auto" preserveAspectRatio="xMidYMid" refX="0" refY="0" style="overflow:visible" viewBox="0 0 1 1"><path d="M0 4v-8" style="fill:none;stroke:context-stroke;stroke-width:1"/></marker><marker id="G" markerHeight="1" markerWidth="1" orient="auto" preserveAspectRatio="xMidYMid" refX="0" refY="0" style="overflow:visible" viewBox="0 0 1 1"><path d="M0 4v-8" style="fill:none;stroke:context-stroke;stroke-width:1"/></marker><marker id="I" markerHeight="1" markerWidth="1" orient="auto" preserveAspectRatio="xMidYMid" refX="0" refY="0" style="overflow:visible" viewBox="0 0 1 1"><path d="M0 4v-8" style="fill:none;stroke:context-stroke;stroke-width:1"/></marker><marker id="K" markerHeight="1" markerWidth="1" orient="auto" preserveAspectRatio="xMidYMid" refX="0" refY="0" style="overflow:visible" viewBox="0 0 1 1"><path d="M0 4v-8" style="fill:none;stroke:context-stroke;stroke-width:1"/></marker><marker id="M" markerHeight="1" markerWidth="1" orient="auto" preserveAspectRatio="xMidYMid" refX="0" refY="0" style="overflow:visible" viewBox="0 0 1 1"><path d="M0 4v-8" style="fill:none;stroke:context-stroke;stroke-width:1"/></marker><marker id="O" markerHeight="1" markerWidth="1" orient="auto-start-reverse" preserveAspectRatio="xMidYMid" refX="0" refY="0" style="overflow:visible" viewBox="0 0 1 1"><path d="M3-3 0 0l3 3" style="fill:none;stroke:context-stroke;stroke-width:1;stroke-linecap:butt" transform="rotate(180 .125 0)"/></marker><marker id="Q" markerHeight="1" markerWidth="1" orient="auto-start-reverse" preserveAspectRatio="xMidYMid" refX="0" refY="0" style="overflow:visible" viewBox="0 0 1 1"><path d="M3-3 0 0l3 3" style="fill:none;stroke:context-stroke;stroke-width:1;stroke-linecap:butt" transform="rotate(180 .125 0)"/></marker><marker id="S" markerHeight="1" markerWidth="1" orient="auto" preserveAspectRatio="xMidYMid" refX="0" refY="0" style="overflow:visible" viewBox="0 0 1 1"><path d="M0 4v-8" style="fill:none;stroke:context-stroke;stroke-width:1"/></marker><marker id="U" markerHeight="1" markerWidth="1" orient="auto-start-reverse" preserveAspectRatio="xMidYMid" refX="0" refY="0" style="overflow:visible" viewBox="0 0 1 1"><path d="M3-3 0 0l3 3" style="fill:none;stroke:context-stroke;stroke-width:1;stroke-linecap:butt" transform="rotate(180 .125 0)"/></marker><marker id="W" markerHeight="1" markerWidth="1" orient="auto-start-reverse" preserveAspectRatio="xMidYMid" refX="0" refY="0" style="overflow:visible" viewBox="0 0 1 1"><path d="M3-3 0 0l3 3" style="fill:none;stroke:context-stroke;stroke-width:1;stroke-linecap:butt" transform="rotate(180 .125 0)"/></marker><marker id="Y" markerHeight="1" markerWidth="1" orient="auto" preserveAspectRatio="xMidYMid" refX="0" refY="0" style="overflow:visible" viewBox="0 0 1 1"><path d="M0 4v-8" style="fill:none;stroke:context-stroke;stroke-width:1"/></marker><marker id="aa" markerHeight="1" markerWidth="1" orient="auto" preserveAspectRatio="xMidYMid" refX="0" refY="0" style="overflow:visible" viewBox="0 0 1 1"><path d="M0 4v-8" style="fill:none;stroke:context-stroke;stroke-width:1"/></marker><marker id="ac" markerHeight="1" markerWidth="1" orient="auto" preserveAspectRatio="xMidYMid" refX="0" refY="0" style="overflow:visible" viewBox="0 0 1 1"><path d="M0 4v-8" style="fill:none;stroke:context-stroke;stroke-width:1"/></marker><marker id="ae" markerHeight="1" markerWidth="1" orient="auto-start-reverse" preserveAspectRatio="xMidYMid" refX="0" refY="0" style="overflow:visible" viewBox="0 0 1 1"><path d="M3-3 0 0l3 3" style="fill:none;stroke:context-stroke;stroke-width:1;stroke-linecap:butt" transform="rotate(180 .125 0)"/></marker><marker id="ag" markerHeight="1" markerWidth="1" orient="auto-start-reverse" preserveAspectRatio="xMidYMid" refX="0" refY="0" style="overflow:visible" viewBox="0 0 1 1"><path d="M3-3 0 0l3 3" style="fill:none;stroke:context-stroke;stroke-width:1;stroke-linecap:butt" transform="rotate(180 .125 0)"/></marker><marker id="ai" markerHeight="1" markerWidth="1" orient="auto" preserveAspectRatio="xMidYMid" refX="0" refY="0" style="overflow:visible" viewBox="0 0 1 1"><path d="M0 4v-8" style="fill:none;stroke:context-stroke;stroke-width:1"/></marker><marker id="al" markerHeight="1" markerWidth="1" orient="auto-start-reverse" preserveAspectRatio="xMidYMid" refX="0" refY="0" style="overflow:visible" viewBox="0 0 1 1"><path d="M3-3 0 0l3 3" style="fill:none;stroke:context-stroke;stroke-width:1;stroke-linecap:butt" transform="rotate(180 .125 0)"/></marker><marker id="an" markerHeight="1" markerWidth="1" orient="auto" preserveAspectRatio="xMidYMid" refX="0" refY="0" style="overflow:visible" viewBox="0 0 1 1"><path d="M0 4v-8" style="fill:none;stroke:context-stroke;stroke-width:1"/></marker><marker id="ap" markerHeight="1" markerWidth="1" orient="auto" preserveAspectRatio="xMidYMid" refX="0" refY="0" style="overflow:visible" viewBox="0 0 1 1"><path d="M0 4v-8" style="fill:none;stroke:context-stroke;stroke-width:1"/></marker><marker id="ar" markerHeight="1" markerWidth="1" orient="auto" preserveAspectRatio="xMidYMid" refX="0" refY="0" style="overflow:visible" viewBox="0 0 1 1"><path d="M0 4v-8" style="fill:none;stroke:context-stroke;stroke-width:1"/></marker><marker id="at" markerHeight="1" markerWidth="1" orient="auto" preserveAspectRatio="xMidYMid" refX="0" refY="0" style="overflow:visible" viewBox="0 0 1 1"><path d="M0 4v-8" style="fill:none;stroke:context-stroke;stroke-width:1"/></marker><marker id="av" markerHeight="1" markerWidth="1" orient="auto" preserveAspectRatio="xMidYMid" refX="0" refY="0" style="overflow:visible" viewBox="0 0 1 1"><path d="M0 4v-8" style="fill:none;stroke:context-stroke;stroke-width:1"/></marker><marker id="ax" markerHeight="1" markerWidth="1" orient="auto-start-reverse" preserveAspectRatio="xMidYMid" refX="0" refY="0" style="overflow:visible" viewBox="0 0 1 1"><path d="M3-3 0 0l3 3" style="fill:none;stroke:context-stroke;stroke-width:1;stroke-linecap:butt" transform="rotate(180 .125 0)"/></marker><marker id="az" markerHeight="1" markerWidth="1" orient="auto-start-reverse" preserveAspectRatio="xMidYMid" refX="0" refY="0" style="overflow:visible" viewBox="0 0 1 1"><path d="M3-3 0 0l3 3" style="fill:none;stroke:context-stroke;stroke-width:1;stroke-linecap:butt" transform="rotate(180 .125 0)"/></marker><marker id="aB" markerHeight="1" markerWidth="1" orient="auto" preserveAspectRatio="xMidYMid" refX="0" refY="0" style="overflow:visible" viewBox="0 0 1 1"><path d="M0 4v-8" style="fill:none;stroke:context-stroke;stroke-width:1"/></marker><marker id="aD" markerHeight="1" markerWidth="1" orient="auto-start-reverse" preserveAspectRatio="xMidYMid" refX="0" refY="0" style="overflow:visible" viewBox="0 0 1 1"><path d="M3-3 0 0l3 3" style="fill:none;stroke:context-stroke;stroke-width:1;stroke-linecap:butt" transform="rotate(180 .125 0)"/></marker><marker id="aF" markerHeight="1" markerWidth="1" orient="auto-start-reverse" preserveAspectRatio="xMidYMid" refX="0" refY="0" style="overflow:visible" viewBox="0 0 1 1"><path d="M3-3 0 0l3 3" style="fill:none;stroke:context-stroke;stroke-width:1;stroke-linecap:butt" transform="rotate(180 .125 0)"/></marker><marker id="aJ" markerHeight="1" markerWidth="1" orient="auto-start-reverse" preserveAspectRatio="xMidYMid" refX="0" refY="0" style="overflow:visible" viewBox="0 0 1 1"><path d="M3-3 0 0l3 3" style="fill:none;stroke:context-stroke;stroke-width:1;stroke-linecap:butt" transform="rotate(180 .125 0)"/></marker></defs><path d="M25.043 359.689h121v95.452h-121z" style="fill:#fff;stroke:#fff;stroke-width:.264583;stroke-linejoin:round;stroke-dasharray:none"/><path d="M40.018 375.552H135.4v57.321H40.018z" style="fill:#fff6d5;stroke:#f95;stroke-width:.264583;stroke-linejoin:round"/><path d="M-431.115 47.955h7.938v79.375h-7.938z" style="fill:#cdde87;stroke:#f95;stroke-width:.264582;stroke-linejoin:round" transform="rotate(-90)"/><path d="M15.067 31.061h121v90.866h-121zM14.14 135.139h137.457v70.467H14.14zM33.379 229.946h87.157v115.668H33.379z" style="fill:#fff;stroke:#fff;stroke-width:.264583;stroke-linejoin:round;stroke-dasharray:none"/><path d="M30.042 149.915h95.25v50.651h-95.25z" style="fill:#e6e6e6;stroke:#f95;stroke-width:.264583;stroke-linejoin:round"/><path d="M30.042 46.924h95.382v57.321H30.042z" style="fill:#fff6d5;stroke:#f95;stroke-width:.264583;stroke-linejoin:round"/><text xml:space="preserve" style="font-size:16px;line-height:normal;font-family:&quot;Liberation Mono&quot;;-inkscape-font-specification:&quot;Liberation Mono&quot;;text-decoration-color:#000;white-space:pre;shape-inside:url(#a);display:inline;fill:#000;stroke-width:1;-inkscape-stroke:none;stop-color:#000" transform="scale(.26458)"><tspan x="32.213" y="45.211">src_bookshelf.svg</tspan></text><path d="M24.75 41.632h105.833v5.292H24.75z" style="fill:#ffe6d5;stroke:#f95;stroke-width:.264583;stroke-linejoin:round"/><path d="M-117.901 24.75h70.977v5.292h-70.977zM-332.908-165.208h94.852v61.387h-94.852zM-117.901 125.292h70.977v5.292h-70.977z" style="fill:#fca;stroke:#f95;stroke-width:.264583;stroke-linejoin:round" transform="rotate(-90)"/><path d="M30.042 65.445h95.25v5.292h-95.25z" style="fill:#fca;stroke:#f95;stroke-width:.264583;stroke-linejoin:round"/><path d="M30.042 70.737h7.938v7.938h-7.938zM117.354 70.737h7.938v7.938h-7.938zM117.354 46.924h7.938v7.938h-7.938zM30.042 46.924h7.938v7.938h-7.938z" style="fill:#ff7f2a;stroke:#f95;stroke-width:.264583;stroke-linejoin:round"/><path d="M30.042 89.257h95.25v5.292h-95.25z" style="fill:#fca;stroke:#f95;stroke-width:.264583;stroke-linejoin:round"/><path d="M30.042 94.549h7.938v7.938h-7.938zM117.354 94.549h7.938v7.938h-7.938z" style="fill:#ff7f2a;stroke:#f95;stroke-width:.264583;stroke-linejoin:round"/><path d="M30.042 78.674h7.938v10.583h-7.938zM117.354 78.674h7.938v10.583h-7.938zM117.354 54.862h7.938v10.583h-7.938zM30.042 54.862h7.938v10.583h-7.938z" style="fill:#cdde87;stroke:#f95;stroke-width:.264582;stroke-linejoin:round"/><path d="M-54.862 37.979h7.938v79.375h-7.938zM-78.674 37.979h7.938v79.375h-7.938z" style="fill:#cdde87;stroke:#f95;stroke-width:.264582;stroke-linejoin:round" transform="rotate(-90)"/><path d="M-200.566 24.75h55.678v5.292h-55.678zM-200.566 125.292h55.678v5.292h-55.678z" style="fill:#fca;stroke:#f95;stroke-width:.264583;stroke-linejoin:round" transform="rotate(-90)"/><path d="M30.042 144.888h95.382v5.027H30.042z" style="fill:#fff6d5;stroke:#f95;stroke-width:.264583;stroke-linejoin:round"/><path d="M30.042 149.915h7.938v32.67h-7.938zM117.354 149.915h7.938v32.67h-7.938z" style="fill:#ff7f2a;stroke:#f95;stroke-width:.264583;stroke-linejoin:round"/><path d="M-157.852 37.979h7.938v79.375h-7.938z" style="fill:#cdde87;stroke:#f95;stroke-width:.264582;stroke-linejoin:round" transform="rotate(-90)"/><path d="M42.253 241.533v84.378h10.99v10.474h50.397v-94.852z" style="fill:#fca;stroke:#f95;stroke-width:.264583;stroke-linejoin:round"/><path d="M42.253 236.241h61.387v5.292H42.253z" style="fill:#ffe6d5;stroke:#f95;stroke-width:.264583;stroke-linejoin:round"/><path d="M-325.911 42.253h84.378v5.027h-84.378z" style="fill:#fff6d5;stroke:#f95;stroke-width:.264583;stroke-linejoin:round" transform="rotate(-90)"/><path d="M47.28 275.399h56.36v5.292H47.28zM47.28 307.919h56.36v5.292H47.28z" style="fill:#e6e6e6;stroke:#f95;stroke-width:.264583;stroke-linejoin:round"/><path d="M-249.47 47.28h7.938v32.67h-7.938zM-288.629 47.28h7.938v32.67h-7.938zM-321.148 47.28h7.938v32.67h-7.938z" style="fill:#ff7f2a;stroke:#f95;stroke-width:.264583;stroke-linejoin:round" transform="rotate(-90)"/><path d="M47.28 249.47h7.938v25.929H47.28zM47.28 288.629h7.938v19.29H47.28z" style="fill:#cdde87;stroke:#f95;stroke-width:.264582;stroke-linejoin:round"/><path d="M103.64 236.24v5.293" style="fill:#e6e6e6;stroke:#f95;stroke-width:.264583;stroke-linejoin:round"/><path d="M106.286 241.533v-5.292" style="fill:#e6e6e6;stroke:#000;stroke-width:.264583;stroke-linejoin:round;stroke-dasharray:none;marker-start:url(#b);marker-end:url(#b)"/><path d="M108.402 241.533v33.866" style="fill:#e6e6e6;stroke:#000;stroke-width:.264583;stroke-linejoin:round;stroke-dasharray:none;marker-start:url(#c);marker-end:url(#c)"/><path d="M111.578 275.4v5.291" style="fill:#e6e6e6;stroke:#000;stroke-width:.264583;stroke-linejoin:round;stroke-dasharray:none;marker-start:url(#b);marker-end:url(#b)"/><path d="M108.402 280.691v27.228" style="fill:#e6e6e6;stroke:#000;stroke-width:.264583;stroke-linejoin:round;stroke-dasharray:none;marker-start:url(#c);marker-end:url(#c)"/><path d="M111.048 307.919v5.291" style="fill:#e6e6e6;stroke:#000;stroke-width:.264583;stroke-linejoin:round;stroke-dasharray:none;marker-start:url(#b);marker-end:url(#b)"/><path d="M108.402 313.21v23.175" style="fill:#e6e6e6;stroke:#000;stroke-width:.264583;stroke-linejoin:round;stroke-dasharray:none;marker-start:url(#c);marker-end:url(#c)"/><path d="M53.244 339.03h50.396" style="fill:#e6e6e6;stroke:#000;stroke-width:.264583;stroke-linejoin:round;stroke-dasharray:none;marker-start:url(#c);marker-end:url(#c)"/><path d="M42.253 328.027h10.99" style="fill:#e6e6e6;stroke:#000;stroke-width:.264583;stroke-linejoin:round;stroke-dasharray:none;marker-start:url(#c);marker-end:url(#c)"/><path d="M55.89 325.91v10.475" style="fill:#e6e6e6;stroke:#000;stroke-width:.264583;stroke-linejoin:round;stroke-dasharray:none;marker-start:url(#c);marker-end:url(#c)"/><path d="M42.253 264.816h5.027" style="fill:#e6e6e6;stroke:#000;stroke-width:.264583;stroke-linejoin:round;stroke-dasharray:none;marker-start:url(#b);marker-end:url(#b)"/><text xml:space="preserve" style="font-size:16px;line-height:normal;font-family:&quot;Liberation Mono&quot;;-inkscape-font-specification:&quot;Liberation Mono&quot;;text-decoration-color:#000;white-space:pre;shape-inside:url(#d);fill:#000;stroke-width:1;-inkscape-stroke:none;stop-color:#000" transform="translate(-5.1 .927)scale(.26458)"><tspan x="436.295" y="1232.883">H1</tspan></text><text xml:space="preserve" style="font-size:16px;line-height:normal;font-family:&quot;Liberation Mono&quot;;-inkscape-font-specification:&quot;Liberation Mono&quot;;text-decoration-color:#000;white-space:pre;shape-inside:url(#e);fill:#000;stroke-width:1;-inkscape-stroke:none;stop-color:#000" transform="translate(-9.504 3.013)scale(.26458)"><tspan x="454.693" y="1107.602">H2</tspan></text><text xml:space="preserve" style="font-size:16px;line-height:normal;font-family:&quot;Liberation Mono&quot;;-inkscape-font-specification:&quot;Liberation Mono&quot;;text-decoration-color:#000;white-space:pre;shape-inside:url(#f);fill:#000;stroke-width:1;-inkscape-stroke:none;stop-color:#000" transform="translate(-9.272 4.404)scale(.26458)"><tspan x="452.941" y="965.674">H3</tspan></text><text xml:space="preserve" style="font-size:16px;line-height:normal;font-family:&quot;Liberation Mono&quot;;-inkscape-font-specification:&quot;Liberation Mono&quot;;text-decoration-color:#000;white-space:pre;shape-inside:url(#g);fill:#999;stroke-width:1;-inkscape-stroke:none;stop-color:#000" transform="translate(49.242 -59.34)scale(.26458)"><tspan x="241.803" y="1403.721">E1</tspan></text><text xml:space="preserve" style="font-size:16px;line-height:normal;font-family:&quot;Liberation Mono&quot;;-inkscape-font-specification:&quot;Liberation Mono&quot;;text-decoration-color:#000;white-space:pre;shape-inside:url(#h);display:inline;fill:#999;stroke-width:1;-inkscape-stroke:none;stop-color:#000" transform="translate(49.588 -91.88)scale(.26458)"><tspan x="241.803" y="1403.721">E1</tspan></text><text xml:space="preserve" style="font-size:16px;line-height:normal;font-family:&quot;Liberation Mono&quot;;-inkscape-font-specification:&quot;Liberation Mono&quot;;text-decoration-color:#000;white-space:pre;shape-inside:url(#i);display:inline;fill:#000;stroke-width:1;-inkscape-stroke:none;stop-color:#000" transform="translate(44.692 -132.173)scale(.26458)"><tspan x="241.803" y="1403.721">E1</tspan></text><text xml:space="preserve" style="font-size:16px;line-height:normal;font-family:&quot;Liberation Mono&quot;;-inkscape-font-specification:&quot;Liberation Mono&quot;;text-decoration-color:#000;white-space:pre;shape-inside:url(#j);display:inline;fill:#999;stroke-width:1;-inkscape-stroke:none;stop-color:#000" transform="translate(-28.46 -105.116)scale(.26458)"><tspan x="241.803" y="1403.721">E1</tspan></text><text xml:space="preserve" style="font-size:16px;line-height:normal;font-family:&quot;Liberation Mono&quot;;-inkscape-font-specification:&quot;Liberation Mono&quot;;text-decoration-color:#000;white-space:pre;shape-inside:url(#k);fill:#000;stroke-width:1;-inkscape-stroke:none;stop-color:#000" transform="translate(5.795 -13.444)scale(.26458)"><tspan x="268.084" y="1347.652">W1</tspan></text><text xml:space="preserve" style="font-size:16px;line-height:normal;font-family:&quot;Liberation Mono&quot;;-inkscape-font-specification:&quot;Liberation Mono&quot;;text-decoration-color:#000;white-space:pre;shape-inside:url(#l);fill:#000;stroke-width:1;-inkscape-stroke:none;stop-color:#000" transform="translate(17.849 -28.28)scale(.26458)"><tspan x="98.998" y="1364.297">W5</tspan></text><text xml:space="preserve" style="font-size:16px;line-height:normal;font-family:&quot;Liberation Mono&quot;;-inkscape-font-specification:&quot;Liberation Mono&quot;;text-decoration-color:#000;white-space:pre;shape-inside:url(#m);fill:#000;stroke-width:1;-inkscape-stroke:none;stop-color:#000" transform="translate(26.193 -35.002)scale(.26458)"><tspan x="116.521" y="1390.58">H5</tspan></text><path d="M47.28 246.824h32.67" style="fill:#e6e6e6;stroke:#000;stroke-width:.264583;stroke-linejoin:round;stroke-dasharray:none;marker-start:url(#c);marker-end:url(#c)"/><text xml:space="preserve" style="font-size:16px;line-height:normal;font-family:&quot;Liberation Mono&quot;;-inkscape-font-specification:&quot;Liberation Mono&quot;;text-decoration-color:#000;white-space:pre;shape-inside:url(#n);fill:#000;stroke-width:1;-inkscape-stroke:none;stop-color:#000" transform="translate(47.983 -61.427)scale(.26458)"><tspan x="49.938" y="1161.043">W2</tspan></text><path d="M82.066 241.533v7.937" style="fill:#e6e6e6;stroke:#000;stroke-width:.264583;stroke-linejoin:round;stroke-dasharray:none;marker-start:url(#b);marker-end:url(#b)"/><path d="M47.28 273.812h7.937" style="fill:#e6e6e6;stroke:#000;stroke-width:.264583;stroke-linejoin:round;stroke-dasharray:none;marker-start:url(#b);marker-end:url(#b)"/><text xml:space="preserve" style="font-size:16px;line-height:normal;font-family:&quot;Liberation Mono&quot;;-inkscape-font-specification:&quot;Liberation Mono&quot;;text-decoration-color:#000;white-space:pre;shape-inside:url(#o);fill:#000;stroke-width:1;-inkscape-stroke:none;stop-color:#000" transform="translate(111.828 -23.757)scale(.26458)"><tspan x="-107.76" y="1020.67">E2</tspan></text><text xml:space="preserve" style="font-size:16px;line-height:normal;font-family:&quot;Liberation Mono&quot;;-inkscape-font-specification:&quot;Liberation Mono&quot;;text-decoration-color:#000;white-space:pre;shape-inside:url(#p);display:inline;fill:#999;stroke-width:1;-inkscape-stroke:none;stop-color:#000" transform="translate(77.147 2.14)scale(.26458)"><tspan x="-107.76" y="1020.67">E2</tspan></text><path d="M25.015 197.92h5.027" style="fill:#e6e6e6;stroke:#000;stroke-width:.264583;stroke-linejoin:round;stroke-dasharray:none;marker-start:url(#q);marker-end:url(#q)"/><text xml:space="preserve" style="font-size:16px;line-height:normal;font-family:&quot;Liberation Mono&quot;;-inkscape-font-specification:&quot;Liberation Mono&quot;;text-decoration-color:#000;white-space:pre;shape-inside:url(#r);display:inline;fill:#000;stroke-width:1;-inkscape-stroke:none;stop-color:#000" transform="translate(-45.698 -172.012)scale(.26458)"><tspan x="241.803" y="1403.721">E1</tspan></text><path d="M30.042 179.41h7.937" style="fill:#000;stroke:#000;stroke-width:.264583;stroke-linejoin:round;stroke-dasharray:none;marker-start:url(#s);marker-end:url(#s)"/><text xml:space="preserve" style="font-size:16px;line-height:normal;font-family:&quot;Liberation Mono&quot;;-inkscape-font-specification:&quot;Liberation Mono&quot;;text-decoration-color:#000;white-space:pre;shape-inside:url(#t);display:inline;fill:#000;stroke-width:1;-inkscape-stroke:none;stop-color:#000" transform="translate(59.909 -92.263)scale(.26458)"><tspan x="-107.76" y="1020.67">E2</tspan></text><path d="M45.504 149.915v7.937" style="fill:#e6e6e6;stroke:#000;stroke-width:.264583;stroke-linejoin:round;stroke-dasharray:none;marker-start:url(#u);marker-end:url(#u)"/><text xml:space="preserve" style="font-size:16px;line-height:normal;font-family:&quot;Liberation Mono&quot;;-inkscape-font-specification:&quot;Liberation Mono&quot;;text-decoration-color:#000;white-space:pre;shape-inside:url(#v);display:inline;fill:#000;stroke-width:1;-inkscape-stroke:none;stop-color:#000" transform="translate(75.266 -115.375)scale(.26458)"><tspan x="-107.76" y="1020.67">E2</tspan></text><path d="M118.942 149.915v32.67" style="fill:#e6e6e6;stroke:#000;stroke-width:.264583;stroke-linejoin:round;stroke-dasharray:none;marker-start:url(#w);marker-end:url(#w)"/><text xml:space="preserve" style="font-size:16px;line-height:normal;font-family:&quot;Liberation Mono&quot;;-inkscape-font-specification:&quot;Liberation Mono&quot;;text-decoration-color:#000;white-space:pre;shape-inside:url(#x);display:inline;fill:#000;stroke-width:1;-inkscape-stroke:none;stop-color:#000" transform="translate(106.513 -139.527)scale(.26458)"><tspan x="49.938" y="1161.043">W2</tspan></text><path d="M133.23 144.888v55.678" style="fill:#000;stroke:#000;stroke-width:.264583;stroke-linejoin:round;stroke-dasharray:none;marker-start:url(#c);marker-end:url(#c)"/><text xml:space="preserve" style="font-size:16px;line-height:normal;font-family:&quot;Liberation Mono&quot;;-inkscape-font-specification:&quot;Liberation Mono&quot;;text-decoration-color:#000;white-space:pre;shape-inside:url(#y);fill:#999;stroke-width:1;-inkscape-stroke:none;stop-color:#000" transform="translate(1.626 -49.413)scale(.26458)"><tspan x="506.896" y="844.774">W1+W5</tspan></text><path d="M53.97 144.881v5.04" style="fill:#e6e6e6;stroke:#000;stroke-width:.264583;stroke-linejoin:round;stroke-dasharray:none;marker-start:url(#z);marker-end:url(#z)"/><text xml:space="preserve" style="font-size:16px;line-height:normal;font-family:&quot;Liberation Mono&quot;;-inkscape-font-specification:&quot;Liberation Mono&quot;;text-decoration-color:#000;white-space:pre;shape-inside:url(#A);display:inline;fill:#999;stroke-width:1;-inkscape-stroke:none;stop-color:#000" transform="translate(-8.019 -222.655)scale(.26458)"><tspan x="241.803" y="1403.721">E1</tspan></text><path d="M24.75 142.771h105.833" style="fill:#999;stroke:#000;stroke-width:.264583;stroke-linejoin:round;stroke-dasharray:none;marker-start:url(#c);marker-end:url(#c)"/><text xml:space="preserve" style="font-size:16px;line-height:normal;font-family:&quot;Liberation Mono&quot;;-inkscape-font-specification:&quot;Liberation Mono&quot;;text-decoration-color:#000;white-space:pre;shape-inside:url(#B);fill:#000;stroke-width:1;-inkscape-stroke:none;stop-color:#000" transform="translate(-66.976 -88.058)scale(.26458)"><tspan x="536.539" y="864.924">L1</tspan></text><path d="M24.75 39.516h105.833" style="fill:#999;stroke:#000;stroke-width:.264583;stroke-linejoin:round;stroke-dasharray:none;marker-start:url(#C);marker-end:url(#C)"/><text xml:space="preserve" style="font-size:16px;line-height:normal;font-family:&quot;Liberation Mono&quot;;-inkscape-font-specification:&quot;Liberation Mono&quot;;text-decoration-color:#000;white-space:pre;shape-inside:url(#D);display:inline;fill:#000;stroke-width:1;-inkscape-stroke:none;stop-color:#000" transform="translate(-66.976 -191.313)scale(.26458)"><tspan x="536.539" y="864.924">L1</tspan></text><path d="M43.8 46.924v7.938" style="fill:#e6e6e6;stroke:#000;stroke-width:.264583;stroke-linejoin:round;stroke-dasharray:none;marker-start:url(#E);marker-end:url(#E)"/><text xml:space="preserve" style="font-size:16px;line-height:normal;font-family:&quot;Liberation Mono&quot;;-inkscape-font-specification:&quot;Liberation Mono&quot;;text-decoration-color:#000;white-space:pre;shape-inside:url(#F);display:inline;fill:#000;stroke-width:1;-inkscape-stroke:none;stop-color:#000" transform="translate(73.562 -218.366)scale(.26458)"><tspan x="-107.76" y="1020.67">E2</tspan></text><path d="M52.267 41.89v5.04" style="fill:#e6e6e6;stroke:#000;stroke-width:.264583;stroke-linejoin:round;stroke-dasharray:none;marker-start:url(#G);marker-end:url(#G)"/><text xml:space="preserve" style="font-size:16px;line-height:normal;font-family:&quot;Liberation Mono&quot;;-inkscape-font-specification:&quot;Liberation Mono&quot;;text-decoration-color:#000;white-space:pre;shape-inside:url(#H);display:inline;fill:#000;stroke-width:1;-inkscape-stroke:none;stop-color:#000" transform="translate(-9.723 -325.646)scale(.26458)"><tspan x="241.803" y="1403.721">E1</tspan></text><path d="M25.015 57.629h5.027" style="fill:#e6e6e6;stroke:#000;stroke-width:.264583;stroke-linejoin:round;stroke-dasharray:none;marker-start:url(#I);marker-end:url(#I)"/><text xml:space="preserve" style="font-size:16px;line-height:normal;font-family:&quot;Liberation Mono&quot;;-inkscape-font-specification:&quot;Liberation Mono&quot;;text-decoration-color:#000;white-space:pre;shape-inside:url(#J);display:inline;fill:#999;stroke-width:1;-inkscape-stroke:none;stop-color:#000" transform="translate(-45.698 -312.303)scale(.26458)"><tspan x="241.803" y="1403.721">E1</tspan></text><path d="M30.042 62.402h7.937" style="fill:#000;stroke:#000;stroke-width:.264583;stroke-linejoin:round;stroke-dasharray:none;marker-start:url(#K);marker-end:url(#K)"/><text xml:space="preserve" style="font-size:16px;line-height:normal;font-family:&quot;Liberation Mono&quot;;-inkscape-font-specification:&quot;Liberation Mono&quot;;text-decoration-color:#000;white-space:pre;shape-inside:url(#L);display:inline;fill:#000;stroke-width:1;-inkscape-stroke:none;stop-color:#000" transform="translate(59.909 -209.27)scale(.26458)"><tspan x="-107.76" y="1020.67">E2</tspan></text><path d="M106.242 65.445v5.04" style="fill:#e6e6e6;stroke:#000;stroke-width:.264583;stroke-linejoin:round;stroke-dasharray:none;marker-start:url(#M);marker-end:url(#M)"/><text xml:space="preserve" style="font-size:16px;line-height:normal;font-family:&quot;Liberation Mono&quot;;-inkscape-font-specification:&quot;Liberation Mono&quot;;text-decoration-color:#000;white-space:pre;shape-inside:url(#N);display:inline;fill:#999;stroke-width:1;-inkscape-stroke:none;stop-color:#000" transform="translate(44.252 -302.092)scale(.26458)"><tspan x="241.803" y="1403.721">E1</tspan></text><path d="M32.158 104.316v13.393" style="fill:#e6e6e6;stroke:#000;stroke-width:.264582;stroke-linejoin:round;stroke-dasharray:none;marker-start:url(#O);marker-end:url(#O)"/><text xml:space="preserve" style="font-size:16px;line-height:normal;font-family:&quot;Liberation Mono&quot;;-inkscape-font-specification:&quot;Liberation Mono&quot;;text-decoration-color:#000;white-space:pre;shape-inside:url(#P);display:inline;fill:#000;stroke-width:1;-inkscape-stroke:none;stop-color:#000" transform="translate(2.462 -255.08)scale(.26458)"><tspan x="116.521" y="1390.58">H5</tspan></text><path d="M98.833 94.55v23.173" style="fill:#e6e6e6;stroke:#000;stroke-width:.264583;stroke-linejoin:round;stroke-dasharray:none;marker-start:url(#Q);marker-end:url(#Q)"/><text xml:space="preserve" style="font-size:16px;line-height:normal;font-family:&quot;Liberation Mono&quot;;-inkscape-font-specification:&quot;Liberation Mono&quot;;text-decoration-color:#000;white-space:pre;shape-inside:url(#R);display:inline;fill:#000;stroke-width:1;-inkscape-stroke:none;stop-color:#000" transform="translate(-15.78 -217.613)scale(.26458)"><tspan x="436.295" y="1232.883">H1</tspan></text><path d="M105.883 89.257v5.04" style="fill:#e6e6e6;stroke:#000;stroke-width:.264583;stroke-linejoin:round;stroke-dasharray:none;marker-start:url(#S);marker-end:url(#S)"/><text xml:space="preserve" style="font-size:16px;line-height:normal;font-family:&quot;Liberation Mono&quot;;-inkscape-font-specification:&quot;Liberation Mono&quot;;text-decoration-color:#000;white-space:pre;shape-inside:url(#T);display:inline;fill:#999;stroke-width:1;-inkscape-stroke:none;stop-color:#000" transform="translate(43.894 -278.28)scale(.26458)"><tspan x="241.803" y="1403.721">E1</tspan></text><path d="M99.004 70.807v18.502" style="fill:#e6e6e6;stroke:#000;stroke-width:.264583;stroke-linejoin:round;stroke-dasharray:none;marker-start:url(#U);marker-end:url(#U)"/><text xml:space="preserve" style="font-size:16px;line-height:normal;font-family:&quot;Liberation Mono&quot;;-inkscape-font-specification:&quot;Liberation Mono&quot;;text-decoration-color:#000;white-space:pre;shape-inside:url(#V);display:inline;fill:#000;stroke-width:1;-inkscape-stroke:none;stop-color:#000" transform="translate(-15.609 -243.962)scale(.26458)"><tspan x="436.295" y="1232.883">H2</tspan></text><path d="M98.833 46.943v18.502" style="fill:#e6e6e6;stroke:#000;stroke-width:.264583;stroke-linejoin:round;stroke-dasharray:none;marker-start:url(#W);marker-end:url(#W)"/><text xml:space="preserve" style="font-size:16px;line-height:normal;font-family:&quot;Liberation Mono&quot;;-inkscape-font-specification:&quot;Liberation Mono&quot;;text-decoration-color:#000;white-space:pre;shape-inside:url(#X);display:inline;fill:#000;stroke-width:1;-inkscape-stroke:none;stop-color:#000" transform="translate(-15.609 -267.277)scale(.26458)"><tspan x="436.295" y="1232.883">H3</tspan></text><path d="M11.416 463.767h137.457v74.401H11.416z" style="fill:#fff;stroke:#fff;stroke-width:.264583;stroke-linejoin:round;stroke-dasharray:none"/><path d="M27.318 478.543h95.25v50.651h-95.25z" style="fill:#e6e6e6;stroke:#f95;stroke-width:.264583;stroke-linejoin:round"/><path d="M34.726 370.26h105.833v5.292H34.726z" style="fill:#ffe6d5;stroke:#f95;stroke-width:.264583;stroke-linejoin:round"/><path d="M-446.529 34.726h70.977v5.292h-70.977zM-446.529 135.268h70.977v5.292h-70.977z" style="fill:#fca;stroke:#f95;stroke-width:.264583;stroke-linejoin:round" transform="rotate(-90)"/><path d="M40.018 394.073h95.25v5.292h-95.25z" style="fill:#fca;stroke:#f95;stroke-width:.264583;stroke-linejoin:round"/><path d="M40.018 399.365h7.938v7.938h-7.938zM127.33 399.365h7.938v7.938h-7.938zM127.33 375.552h7.938v7.938h-7.938zM40.018 375.552h7.938v7.938h-7.938z" style="fill:#ff7f2a;stroke:#f95;stroke-width:.264583;stroke-linejoin:round"/><path d="M40.018 417.885h95.25v5.292h-95.25z" style="fill:#fca;stroke:#f95;stroke-width:.264583;stroke-linejoin:round"/><path d="M40.018 423.177h7.938v7.938h-7.938zM127.33 423.177h7.938v7.938h-7.938z" style="fill:#ff7f2a;stroke:#f95;stroke-width:.264583;stroke-linejoin:round"/><path d="M40.018 407.302h7.938v10.583h-7.938zM127.33 407.302h7.938v10.583h-7.938zM127.33 383.49h7.938v10.583h-7.938zM40.018 383.49h7.938v10.583h-7.938z" style="fill:#cdde87;stroke:#f95;stroke-width:.264582;stroke-linejoin:round"/><path d="M-383.49 47.955h7.938v79.375h-7.938zM-407.302 47.955h7.938v79.375h-7.938z" style="fill:#cdde87;stroke:#f95;stroke-width:.264582;stroke-linejoin:round" transform="rotate(-90)"/><path d="M-529.193 22.026h55.678v5.292h-55.678zM-529.193 122.568h55.678v5.292h-55.678z" style="fill:#fca;stroke:#f95;stroke-width:.264583;stroke-linejoin:round" transform="rotate(-90)"/><path d="M27.318 473.516H122.7v5.027H27.318z" style="fill:#fff6d5;stroke:#f95;stroke-width:.264583;stroke-linejoin:round"/><path d="M27.318 478.543h7.938v32.67h-7.938zM114.63 478.543h7.938v32.67h-7.938z" style="fill:#ff7f2a;stroke:#f95;stroke-width:.264583;stroke-linejoin:round"/><path d="M-486.48 35.255h7.938v79.375h-7.938z" style="fill:#cdde87;stroke:#f95;stroke-width:.264582;stroke-linejoin:round" transform="rotate(-90)"/><path d="M22.29 526.548h5.028" style="fill:#e6e6e6;stroke:#000;stroke-width:.264583;stroke-linejoin:round;stroke-dasharray:none;marker-start:url(#Y);marker-end:url(#Y)"/><text xml:space="preserve" style="font-size:16px;line-height:normal;font-family:&quot;Liberation Mono&quot;;-inkscape-font-specification:&quot;Liberation Mono&quot;;text-decoration-color:#000;white-space:pre;shape-inside:url(#Z);display:inline;fill:#000;stroke-width:1;-inkscape-stroke:none;stop-color:#000" transform="translate(-48.422 156.616)scale(.26458)"><tspan x="241.803" y="1403.721">E1</tspan></text><path d="M27.318 508.038h7.937" style="fill:#000;stroke:#000;stroke-width:.264583;stroke-linejoin:round;stroke-dasharray:none;marker-start:url(#aa);marker-end:url(#aa)"/><text xml:space="preserve" style="font-size:16px;line-height:normal;font-family:&quot;Liberation Mono&quot;;-inkscape-font-specification:&quot;Liberation Mono&quot;;text-decoration-color:#000;white-space:pre;shape-inside:url(#ab);display:inline;fill:#000;stroke-width:1;-inkscape-stroke:none;stop-color:#000" transform="translate(57.185 236.365)scale(.26458)"><tspan x="-107.76" y="1020.67">E2</tspan></text><path d="M42.78 478.543v7.937" style="fill:#e6e6e6;stroke:#000;stroke-width:.264583;stroke-linejoin:round;stroke-dasharray:none;marker-start:url(#ac);marker-end:url(#ac)"/><text xml:space="preserve" style="font-size:16px;line-height:normal;font-family:&quot;Liberation Mono&quot;;-inkscape-font-specification:&quot;Liberation Mono&quot;;text-decoration-color:#000;white-space:pre;shape-inside:url(#ad);display:inline;fill:#000;stroke-width:1;-inkscape-stroke:none;stop-color:#000" transform="translate(72.542 213.253)scale(.26458)"><tspan x="-107.76" y="1020.67">E2</tspan></text><path d="M116.218 478.543v32.67" style="fill:#e6e6e6;stroke:#000;stroke-width:.264583;stroke-linejoin:round;stroke-dasharray:none;marker-start:url(#ae);marker-end:url(#ae)"/><text xml:space="preserve" style="font-size:16px;line-height:normal;font-family:&quot;Liberation Mono&quot;;-inkscape-font-specification:&quot;Liberation Mono&quot;;text-decoration-color:#000;white-space:pre;shape-inside:url(#af);display:inline;fill:#000;stroke-width:1;-inkscape-stroke:none;stop-color:#000" transform="translate(103.79 189.101)scale(.26458)"><tspan x="49.938" y="1161.043">W2</tspan></text><path d="M130.505 473.516v55.677" style="fill:#000;stroke:#000;stroke-width:.264583;stroke-linejoin:round;stroke-dasharray:none;marker-start:url(#ag);marker-end:url(#ag)"/><text xml:space="preserve" style="font-size:16px;line-height:normal;font-family:&quot;Liberation Mono&quot;;-inkscape-font-specification:&quot;Liberation Mono&quot;;text-decoration-color:#000;white-space:pre;shape-inside:url(#ah);display:inline;fill:#999;stroke-width:1;-inkscape-stroke:none;stop-color:#000" transform="translate(-1.097 279.215)scale(.26458)"><tspan x="506.896" y="844.774">W1+W5</tspan></text><path d="M51.247 473.51v5.04" style="fill:#e6e6e6;stroke:#000;stroke-width:.264583;stroke-linejoin:round;stroke-dasharray:none;marker-start:url(#ai);marker-end:url(#ai)"/><text xml:space="preserve" style="font-size:16px;line-height:normal;font-family:&quot;Liberation Mono&quot;;-inkscape-font-specification:&quot;Liberation Mono&quot;;text-decoration-color:#000;white-space:pre;shape-inside:url(#aj);display:inline;fill:#999;stroke-width:1;-inkscape-stroke:none;stop-color:#000" transform="translate(-10.742 105.973)scale(.26458)"><tspan x="241.803" y="1403.721">E1</tspan></text><path d="M22.026 471.399H127.86" style="fill:#999;stroke:#000;stroke-width:.264583;stroke-linejoin:round;stroke-dasharray:none;marker-start:url(#ag);marker-end:url(#ag)"/><text xml:space="preserve" style="font-size:16px;line-height:normal;font-family:&quot;Liberation Mono&quot;;-inkscape-font-specification:&quot;Liberation Mono&quot;;text-decoration-color:#000;white-space:pre;shape-inside:url(#ak);display:inline;fill:#000;stroke-width:1;-inkscape-stroke:none;stop-color:#000" transform="translate(-69.7 240.57)scale(.26458)"><tspan x="536.539" y="864.924">L1</tspan></text><path d="M34.726 368.144H140.56" style="fill:#999;stroke:#000;stroke-width:.264583;stroke-linejoin:round;stroke-dasharray:none;marker-start:url(#al);marker-end:url(#al)"/><text xml:space="preserve" style="font-size:16px;line-height:normal;font-family:&quot;Liberation Mono&quot;;-inkscape-font-specification:&quot;Liberation Mono&quot;;text-decoration-color:#000;white-space:pre;shape-inside:url(#am);display:inline;fill:#000;stroke-width:1;-inkscape-stroke:none;stop-color:#000" transform="translate(-57 137.315)scale(.26458)"><tspan x="536.539" y="864.924">L1</tspan></text><path d="M53.776 375.552v7.938" style="fill:#e6e6e6;stroke:#000;stroke-width:.264583;stroke-linejoin:round;stroke-dasharray:none;marker-start:url(#an);marker-end:url(#an)"/><text xml:space="preserve" style="font-size:16px;line-height:normal;font-family:&quot;Liberation Mono&quot;;-inkscape-font-specification:&quot;Liberation Mono&quot;;text-decoration-color:#000;white-space:pre;shape-inside:url(#ao);display:inline;fill:#000;stroke-width:1;-inkscape-stroke:none;stop-color:#000" transform="translate(83.538 110.262)scale(.26458)"><tspan x="-107.76" y="1020.67">E2</tspan></text><path d="M62.243 370.519v5.04" style="fill:#e6e6e6;stroke:#000;stroke-width:.264583;stroke-linejoin:round;stroke-dasharray:none;marker-start:url(#ap);marker-end:url(#ap)"/><text xml:space="preserve" style="font-size:16px;line-height:normal;font-family:&quot;Liberation Mono&quot;;-inkscape-font-specification:&quot;Liberation Mono&quot;;text-decoration-color:#000;white-space:pre;shape-inside:url(#aq);display:inline;fill:#000;stroke-width:1;-inkscape-stroke:none;stop-color:#000" transform="translate(.254 2.982)scale(.26458)"><tspan x="241.803" y="1403.721">E1</tspan></text><path d="M34.99 386.257h5.028" style="fill:#e6e6e6;stroke:#000;stroke-width:.264583;stroke-linejoin:round;stroke-dasharray:none;marker-start:url(#ar);marker-end:url(#ar)"/><text xml:space="preserve" style="font-size:16px;line-height:normal;font-family:&quot;Liberation Mono&quot;;-inkscape-font-specification:&quot;Liberation Mono&quot;;text-decoration-color:#000;white-space:pre;shape-inside:url(#as);display:inline;fill:#999;stroke-width:1;-inkscape-stroke:none;stop-color:#000" transform="translate(-35.722 16.325)scale(.26458)"><tspan x="241.803" y="1403.721">E1</tspan></text><path d="M40.018 391.03h7.937" style="fill:#000;stroke:#000;stroke-width:.264583;stroke-linejoin:round;stroke-dasharray:none;marker-start:url(#at);marker-end:url(#at)"/><text xml:space="preserve" style="font-size:16px;line-height:normal;font-family:&quot;Liberation Mono&quot;;-inkscape-font-specification:&quot;Liberation Mono&quot;;text-decoration-color:#000;white-space:pre;shape-inside:url(#au);display:inline;fill:#000;stroke-width:1;-inkscape-stroke:none;stop-color:#000" transform="translate(69.885 119.358)scale(.26458)"><tspan x="-107.76" y="1020.67">E2</tspan></text><path d="M116.218 394.073v5.04" style="fill:#e6e6e6;stroke:#000;stroke-width:.264583;stroke-linejoin:round;stroke-dasharray:none;marker-start:url(#av);marker-end:url(#av)"/><text xml:space="preserve" style="font-size:16px;line-height:normal;font-family:&quot;Liberation Mono&quot;;-inkscape-font-specification:&quot;Liberation Mono&quot;;text-decoration-color:#000;white-space:pre;shape-inside:url(#aw);display:inline;fill:#999;stroke-width:1;-inkscape-stroke:none;stop-color:#000" transform="translate(54.229 26.536)scale(.26458)"><tspan x="241.803" y="1403.721">E1</tspan></text><path d="M42.135 432.944v13.393" style="fill:#e6e6e6;stroke:#000;stroke-width:.264582;stroke-linejoin:round;stroke-dasharray:none;marker-start:url(#ax);marker-end:url(#ax)"/><text xml:space="preserve" style="font-size:16px;line-height:normal;font-family:&quot;Liberation Mono&quot;;-inkscape-font-specification:&quot;Liberation Mono&quot;;text-decoration-color:#000;white-space:pre;shape-inside:url(#ay);display:inline;fill:#000;stroke-width:1;-inkscape-stroke:none;stop-color:#000" transform="translate(12.438 73.548)scale(.26458)"><tspan x="116.521" y="1390.58">H5</tspan></text><path d="M108.81 423.177v23.174" style="fill:#e6e6e6;stroke:#000;stroke-width:.264583;stroke-linejoin:round;stroke-dasharray:none;marker-start:url(#az);marker-end:url(#az)"/><text xml:space="preserve" style="font-size:16px;line-height:normal;font-family:&quot;Liberation Mono&quot;;-inkscape-font-specification:&quot;Liberation Mono&quot;;text-decoration-color:#000;white-space:pre;shape-inside:url(#aA);display:inline;fill:#000;stroke-width:1;-inkscape-stroke:none;stop-color:#000" transform="translate(-5.803 111.015)scale(.26458)"><tspan x="436.295" y="1232.883">H1</tspan></text><path d="M115.86 417.885v5.04" style="fill:#e6e6e6;stroke:#000;stroke-width:.264583;stroke-linejoin:round;stroke-dasharray:none;marker-start:url(#aB);marker-end:url(#aB)"/><text xml:space="preserve" style="font-size:16px;line-height:normal;font-family:&quot;Liberation Mono&quot;;-inkscape-font-specification:&quot;Liberation Mono&quot;;text-decoration-color:#000;white-space:pre;shape-inside:url(#aC);display:inline;fill:#999;stroke-width:1;-inkscape-stroke:none;stop-color:#000" transform="translate(53.87 50.349)scale(.26458)"><tspan x="241.803" y="1403.721">E1</tspan></text><path d="M108.98 399.434v18.502" style="fill:#e6e6e6;stroke:#000;stroke-width:.264583;stroke-linejoin:round;stroke-dasharray:none;marker-start:url(#aD);marker-end:url(#aD)"/><text xml:space="preserve" style="font-size:16px;line-height:normal;font-family:&quot;Liberation Mono&quot;;-inkscape-font-specification:&quot;Liberation Mono&quot;;text-decoration-color:#000;white-space:pre;shape-inside:url(#aE);display:inline;fill:#000;stroke-width:1;-inkscape-stroke:none;stop-color:#000" transform="translate(-5.632 84.666)scale(.26458)"><tspan x="436.295" y="1232.883">H2</tspan></text><path d="M108.81 375.57v18.503" style="fill:#e6e6e6;stroke:#000;stroke-width:.264583;stroke-linejoin:round;stroke-dasharray:none;marker-start:url(#aF);marker-end:url(#aF)"/><text xml:space="preserve" style="font-size:16px;line-height:normal;font-family:&quot;Liberation Mono&quot;;-inkscape-font-specification:&quot;Liberation Mono&quot;;text-decoration-color:#000;white-space:pre;shape-inside:url(#aG);display:inline;fill:#000;stroke-width:1;-inkscape-stroke:none;stop-color:#000" transform="translate(-5.632 61.35)scale(.26458)"><tspan x="436.295" y="1232.883">H3</tspan></text><path d="M-446.529 84.997h70.977v5.292h-70.977z" style="fill:#fca;stroke:#f95;stroke-width:.264583;stroke-linejoin:round" transform="rotate(-90)"/><path d="M90.289 375.552h7.938v7.938h-7.938zM77.06 375.552h7.938v7.938H77.06z" style="fill:#ff7f2a;stroke:#f95;stroke-width:.264583;stroke-linejoin:round"/><path d="M90.289 383.49h7.938v10.583h-7.938zM77.06 383.49h7.938v10.583H77.06z" style="fill:#cdde87;stroke:#f95;stroke-width:.264582;stroke-linejoin:round"/><path d="M77.06 399.365h7.938v7.938H77.06zM90.289 399.365h7.938v7.938h-7.938zM90.289 423.177h7.938v7.938h-7.938zM77.06 423.177h7.938v7.938H77.06z" style="fill:#ff7f2a;stroke:#f95;stroke-width:.264583;stroke-linejoin:round"/><path d="M90.289 407.302h7.938v10.583h-7.938zM77.06 407.302h7.938v10.583H77.06z" style="fill:#cdde87;stroke:#f95;stroke-width:.264582;stroke-linejoin:round"/><path d="M-529.193 72.297h50.651v5.292h-50.651z" style="fill:#fca;stroke:#f95;stroke-width:.264583;stroke-linejoin:round" transform="rotate(-90)"/><path d="M77.589 478.543h7.938v32.67h-7.938zM64.36 478.543h7.938v32.67H64.36z" style="fill:#ff7f2a;stroke:#f95;stroke-width:.264583;stroke-linejoin:round"/><text xml:space="preserve" style="font-size:16px;line-height:normal;font-family:&quot;Liberation Mono&quot;;-inkscape-font-specification:&quot;Liberation Mono&quot;;text-decoration-color:#000;white-space:pre;shape-inside:url(#aH);fill:#000;stroke-width:1;-inkscape-stroke:none;stop-color:#000" transform="translate(8.58 -1.475)scale(.26458)"><tspan x="237.885" y="1717.119">mid: [on,off]</tspan></text><path d="m79.823 449.598 5.9-5.737" style="fill:#fff;stroke:#000;stroke-width:.264583;stroke-linejoin:round;marker-end:url(#c)"/><text xml:space="preserve" style="font-size:16px;line-height:normal;font-family:&quot;Liberation Mono&quot;;-inkscape-font-specification:&quot;Liberation Mono&quot;;text-decoration-color:#000;white-space:pre;shape-inside:url(#aI);display:inline;fill:#000;stroke-width:1;-inkscape-stroke:none;stop-color:#000" transform="translate(-3.442 81.182)scale(.26458)"><tspan x="237.885" y="1717.119">mid: [on,off]</tspan></text><path d="m67.801 532.255 5.901-5.737" style="fill:#fff;stroke:#000;stroke-width:.264583;stroke-linejoin:round;marker-end:url(#aJ)"/></svg>